<!-- Generated by IcoMoon.io -->
<svg version="1.1" xmlns="http://www.w3.org/2000/svg" width="512" height="512" viewBox="0 0 512 512">
<title></title>
<g id="icomoon-ignore">
</g>
<path fill="#000" d="M320 192l-96 160-63.52-46.336-0.48-1.664-3.776-1.456 2.944 2.16-95.168 79.296v32h384v-32l-48-144-80-48zM144 208c26.496 0 48-21.488 48-48s-21.504-48-48-48-48 21.488-48 48 21.504 48 48 48zM496 32h-480c-8.832 0-16 7.168-16 16v416c0 8.848 7.168 16 16 16h480c8.848 0 16-7.152 16-16v-416c0-8.832-7.152-16-16-16zM480 432c0 8.848-7.152 16-16 16h-416c-8.832 0-16-7.152-16-16v-352c0-8.832 7.168-16 16-16h416c8.848 0 16 7.168 16 16v352z"></path>
</svg>
