<svg id="Layer_1" data-name="Layer 1" xmlns="http://www.w3.org/2000/svg" viewBox="0 0 90 90"><title>wfm-logo</title><circle cx="45" cy="45" r="45" style="fill:#006f46"/><path d="M84.22,44.51a.68.68,0,0,0-.59.41s-.06.14-.19.4a1.58,1.58,0,0,1-1.6.81H79.67a3.5,3.5,0,0,1-1.3-.15c-.34-.13-.41-.38-.41-1.53V41.68c0-.49.07-.7.2-.79s.26-.08.89-.08h1c.92,0,1,.07,1.11.5l0,.14c.07.37.26.57.59.57s.61-.26.61-1V39.16c0-.76-.15-1-.61-1s-.52.17-.59.55l0,.14c-.07.44-.2.5-1.11.5H79c-.63,0-.79,0-.89-.08s-.2-.3-.2-.79V35.85c0-1.16.13-1.32,1.32-1.32h2.06c1,0,1.46.07,1.67.63a3.16,3.16,0,0,0,.22.47.56.56,0,0,0,.56.34c.4,0,.59-.3.48-.86L84,33.6c-.09-.4-.34-.55-.78-.55H74.46c-.73,0-1,.16-1,.64a.61.61,0,0,0,.56.61h.44a.42.42,0,0,1,.35.33,2.07,2.07,0,0,1,.09.85v9.76a2.11,2.11,0,0,1-.09.87.4.4,0,0,1-.35.28H74a.57.57,0,0,0-.54.59c0,.49.25.63,1,.63h9.12c.44,0,.69-.15.78-.55l.34-1.7C84.81,44.81,84.61,44.51,84.22,44.51Z" transform="translate(-4.67 -4.93)" style="fill:#fff"/><path d="M68.54,46.13c-.88,0-1.21,0-1.44-.19s-.3-.37-.3-1.33V35.44a2.23,2.23,0,0,1,.06-.85.47.47,0,0,1,.46-.28h.47a.59.59,0,0,0,.58-.61c0-.48-.27-.64-1.05-.64h-4c-.75,0-1,.16-1,.64a.59.59,0,0,0,.59.61h.42a.39.39,0,0,1,.36.28,2,2,0,0,1,.09.85V45.3a1.89,1.89,0,0,1-.09.81.43.43,0,0,1-.36.28h-.42a.57.57,0,0,0-.55.59c0,.49.24.63,1,.63h8.21c.44,0,.69-.15.78-.55l.34-1.7c.12-.56-.08-.86-.48-.86a.68.68,0,0,0-.59.41s-.06.14-.19.4a1.58,1.58,0,0,1-1.6.81Z" transform="translate(-4.67 -4.93)" style="fill:#fff"/><path d="M33.58,34.27c-.38.05-.61.3-.85,1.07l-3.48,11.2c-.31,1.07-.61,1.37-1.26,1.37s-1-.28-1.24-1.09l-1.86-5.55c-.06-.18-.25-.18-.3,0s-2,5.56-2,5.56a2.24,2.24,0,0,1-.44.85,1.32,1.32,0,0,1-.74.24c-.63,0-.94-.26-1.24-1.09L15.89,35.34c-.32-.9-.43-1-1.13-1.16-.47-.08-.61-.24-.61-.59s.23-.57.73-.57H19.4c.5,0,.72.2.72.59s-.22.52-.79.56-.68.2-.68.55a1.5,1.5,0,0,0,.08.49l.17.5s2.41,6.82,2.79,7.92c.06.18.26.17.33,0,.42-1.22,1.57-4.56,1.62-4.7a2,2,0,0,0,0-1.24c0-.16-.79-2.33-.79-2.33-.08-.24-.13-.41-.18-.5-.13-.32-.31-.43-.81-.57s-.62-.26-.62-.58S21.52,33,22,33h4.28c.5,0,.74.2.74.59s-.22.52-.71.59-.74.2-.74.59a2.83,2.83,0,0,0,.22.92s2.11,6.69,2.45,7.74c.06.2.25.16.3,0,.33-1.07,2.42-8.09,2.42-8.09a2,2,0,0,0,.09-.52c0-.33-.23-.5-.76-.57s-.7-.26-.7-.61.25-.61.83-.61H38c.72,0,1,.15,1,.63a.57.57,0,0,1-.54.62H38a.49.49,0,0,0-.42.28,3.31,3.31,0,0,0-.06.86v2.82c0,1,.09,1.09.89,1.09h3c.43,0,.66-.07.77-.2s.1-.22.1-1V35.41a2.69,2.69,0,0,0-.06-.86.47.47,0,0,0-.4-.28H41.4a.6.6,0,0,1-.59-.62c0-.48.26-.63,1-.63h4c.74,0,1,.15,1,.63a.59.59,0,0,1-.57.62h-.44a.44.44,0,0,0-.37.28,2.35,2.35,0,0,0-.08.86v9.8a2.43,2.43,0,0,0,.08.87.41.41,0,0,0,.37.26h.44a.59.59,0,0,1,.57.61c0,.48-.24.63-1,.63h-4c-.75,0-1-.15-1-.63a.6.6,0,0,1,.57-.61h.42a.49.49,0,0,0,.4-.26,2.87,2.87,0,0,0,.06-.87V42c0-.81,0-.9-.1-1s-.34-.2-.77-.2h-3c-.81,0-.89.08-.89,1.09v3.32a3.42,3.42,0,0,0,.06.87.46.46,0,0,0,.42.26h.42A.58.58,0,0,1,39,47c0,.46-.25.61-.94.61H34c-.73,0-1-.15-1-.63a.6.6,0,0,1,.57-.61H34a.4.4,0,0,0,.37-.26,2.3,2.3,0,0,0,.07-.87v-9.8C34.49,34.3,34,34.22,33.58,34.27Z" transform="translate(-4.67 -4.93)" style="fill:#fff"/><path d="M51.28,28.88" transform="translate(-4.67 -4.93)" style="fill:#3a9549"/><path d="M81.69,58.13a18.14,18.14,0,0,0-3-2.36L77.63,55a4.47,4.47,0,0,1-1-1,1.5,1.5,0,0,1-.24-.9A1.47,1.47,0,0,1,78,51.64a3.4,3.4,0,0,1,2.05.7,3.5,3.5,0,0,1,1,1.18c.2.28.35.37.58.37a.57.57,0,0,0,.63-.52.9.9,0,0,0,0-.3l-.52-2.36c-.09-.39-.29-.61-.62-.61a.63.63,0,0,0-.46.18,1,1,0,0,1-.5.2,1.69,1.69,0,0,1-.3,0l-.55-.13a8.91,8.91,0,0,0-1.88-.2c-2.4,0-4,1.4-4,3.52a3.43,3.43,0,0,0,.83,2.29,12.41,12.41,0,0,0,2.94,2.36,12.91,12.91,0,0,1,2.31,1.87,2.43,2.43,0,0,1,.71,1.64c0,1.16-1,1.95-2.38,1.95A4,4,0,0,1,74.64,62l-.31-.43a.68.68,0,0,0-1.24.39,1.76,1.76,0,0,0,.06.44l.55,2.18c.13.52.31.72.67.72a.72.72,0,0,0,.51-.2.59.59,0,0,1,.47-.22,1.82,1.82,0,0,1,.47.11,8.11,8.11,0,0,0,2.29.31c2.88,0,4.76-1.67,4.76-4.19A4.32,4.32,0,0,0,81.69,58.13Z" transform="translate(-4.67 -4.93)" style="fill:#fff"/><path d="M30.13,52.46l-.31-1.52c-.09-.4-.34-.55-.78-.55H19.58c-.73,0-1,.16-1,.64a.61.61,0,0,0,.56.61h.44a.42.42,0,0,1,.35.33,2.05,2.05,0,0,1,.09.85v9.76a2.65,2.65,0,0,1-.07.85.43.43,0,0,1-.37.29h-.45a.6.6,0,0,0-.56.61c0,.48.26.63,1,.63h4c.8,0,1.07-.15,1.07-.63a.59.59,0,0,0-.58-.61H23.6a.55.55,0,0,1-.47-.29,2.66,2.66,0,0,1-.05-.85V59c0-.49.07-.7.2-.79s.26-.08.89-.08H26c.92,0,1,.07,1.11.5l0,.14c.07.37.26.57.59.57s.61-.26.61-1V56.51c0-.76-.15-1-.61-1s-.52.17-.59.55l0,.14c-.07.44-.2.5-1.11.5H24.16c-.63,0-.79,0-.89-.08s-.2-.3-.2-.79V53.2c0-1.16.13-1.32,1.32-1.32h2.8c1,0,1.46.07,1.67.63a3.37,3.37,0,0,0,.22.47.57.57,0,0,0,.56.34C30,53.32,30.24,53,30.13,52.46Z" transform="translate(-4.67 -4.93)" style="fill:#fff"/><path d="M51.43,50.11a6.65,6.65,0,0,0-6.9,5.25h0c-.07.36-.39.38-.47,0a6.69,6.69,0,0,0-6.94-5.28c-4.38,0-7.17,3-7.17,7.63s2.81,7.54,7.13,7.54a6.71,6.71,0,0,0,7-5.23l0,0c.08-.38.4-.36.47,0a.3.3,0,0,0,0,.07,6.66,6.66,0,0,0,6.85,5.19c4.43,0,7.24-3,7.24-7.65S55.79,50.11,51.43,50.11ZM37.13,63.72c-2.46,0-3.92-2.25-3.92-6s1.48-6.08,3.88-6.08S41,54,41,57.72,39.53,63.72,37.13,63.72Zm14.31,0c-2.46,0-3.92-2.25-3.92-6S49,51.68,51.4,51.68s3.95,2.33,3.95,6S53.85,63.72,51.45,63.72Z" transform="translate(-4.67 -4.93)" style="fill:#fff"/><path d="M56,34.16c1.87.72,2.62,2.76,2.62,5.92,0,3.83-1.57,6.27-4.08,6.27s-4.1-2.35-4.1-6.22c0-2.5.36-4.47,2.12-6.2s3.42-1.48,5-3.56c.68-.88.67-1.64.15-1.78s-.8.5-1.27.81c-1.74,1.13-3.7.08-4.76-1.1a3.31,3.31,0,0,0-3.29-1c-.36.08-.55-.2-.17-.5a3.24,3.24,0,0,1,3.83.29,4.33,4.33,0,0,0,3.18,1.38c.56-.11.61-.76,0-1-1.8-.64-1.62-2.68-4.09-3.39-2.91-.83-5.55,1.9-6.28,4.61-.21.78.26,1.23,1,.91,2.42-1,3,.41,5.08,1.22a5,5,0,0,0,2.63.16c.51-.1.51.41.22.51a14.39,14.39,0,0,0-3.62,1.81C48.18,34.68,47,37,47,40.11,47,44.87,50,48,54.48,48S62,44.87,62,40c0-2.8-.89-4.9-2.68-6.21a4.08,4.08,0,0,0-2.94-1C55.25,32.94,55.1,33.83,56,34.16Z" transform="translate(-4.67 -4.93)" style="fill:#fff"/><path d="M29.85,72.25l1.52-2.06a.45.45,0,0,1,.4-.2c.18,0,.32,0,.39.35L32.7,75c0,.27-.39.27-.58.27s-.38-.08-.38-.25l-.37-2.8c0-.12-.07-.17-.16-.17s-.11,0-.17.1l-1.26,1.61a.31.31,0,0,1-.25.14.29.29,0,0,1-.29-.16L28.09,72.2a.19.19,0,0,0-.17-.08c-.09,0-.14.08-.15.19L27.41,75c0,.22-.31.27-.53.27s-.43-.08-.43-.28L27,70.45c.06-.27.12-.43.51-.43a.44.44,0,0,1,.39.22l1.44,2c.08.11.17.2.26.2S29.77,72.36,29.85,72.25Z" transform="translate(-4.67 -4.93)" style="fill:#fff"/><path d="M37.89,70.21a.41.41,0,0,1,.4-.25.39.39,0,0,1,.41.23L41,75c.11.25-.36.29-.52.29s-.4,0-.48-.2l-.34-.7a.28.28,0,0,0-.24-.17H37.21c-.14,0-.26.1-.34.29l-.3.57c-.07.17-.39.19-.54.19s-.57,0-.43-.31Zm-.24,3.16h1.27a.13.13,0,0,0,.13-.19l-.64-1.32a.14.14,0,0,0-.26,0c-.06.15-.59,1.22-.63,1.29S37.53,73.37,37.65,73.37Z" transform="translate(-4.67 -4.93)" style="fill:#fff"/><path d="M49.25,71.78a1.77,1.77,0,0,1-1,1.5c-.14.12-.17.2-.09.32l.88,1.29c.16.24,0,.4-.48.4a.63.63,0,0,1-.59-.23l-.81-1.26a.47.47,0,0,0-.41-.23H45.62a.28.28,0,0,0-.28.26v1.26c0,.25-.48.21-.64.21s-.33-.06-.33-.29v-4.8a.21.21,0,0,1,.23-.2h2.76A1.74,1.74,0,0,1,49.25,71.78Zm-3.9-.6v1.18a.32.32,0,0,0,.34.29H47.3a.88.88,0,1,0,0-1.74H45.69C45.52,70.91,45.34,71,45.34,71.18Z" transform="translate(-4.67 -4.93)" style="fill:#fff"/><path d="M53.54,70c.27,0,.45.06.45.31v1.41c0,.23.1.34.24.34a.76.76,0,0,0,.65-.22l1.89-1.73a.43.43,0,0,1,.64,0c.17.16.25.35.06.54s-1.65,1.5-1.65,1.5a.28.28,0,0,0,0,.46l2,2.21c.29.31,0,.46-.39.46s-.56-.07-.68-.2l-1.68-1.79a1,1,0,0,0-.77-.23.36.36,0,0,0-.31.39V75c0,.29-.25.31-.52.31S53,75.2,53,75V70.31C53,70,53.2,70,53.54,70Z" transform="translate(-4.67 -4.93)" style="fill:#fff"/><path d="M61.15,70h4c.24,0,.28.16.28.44s0,.47-.3.47H62a.22.22,0,0,0-.22.23v.71a.23.23,0,0,0,.25.23h1.81c.22,0,.28.19.28.47s-.05.45-.25.45H62.07a.26.26,0,0,0-.28.27v.77a.24.24,0,0,0,.25.27h3.11c.2,0,.28.13.28.47s-.05.44-.27.44h-4c-.23,0-.33-.11-.33-.38V70.35C60.83,70.14,60.91,70,61.15,70Z" transform="translate(-4.67 -4.93)" style="fill:#fff"/><path d="M72.58,70c.18,0,.31.1.31.44s-.08.47-.29.47H71.33c-.18,0-.3.06-.3.27V75c0,.27-.19.3-.49.3s-.48,0-.48-.29v-3.8c0-.19-.07-.27-.3-.27H68.49c-.21,0-.27-.2-.27-.37s0-.54.26-.54Z" transform="translate(-4.67 -4.93)" style="fill:#fff"/><path d="M70.6,52c-1.34-1.35-3-1.94-5.75-1.94a35.05,35.05,0,0,0-5.14.34c-.64.09-1,.16-1,.64a.56.56,0,0,0,.52.61h.45a.44.44,0,0,1,.37.29,2.87,2.87,0,0,1,.07.86v9.72a2.86,2.86,0,0,1-.07.86.44.44,0,0,1-.37.29h-.45a.56.56,0,0,0-.52.61c0,.48.33.54,1,.64a35.06,35.06,0,0,0,5.14.34,7.77,7.77,0,0,0,5.22-1.48,7.57,7.57,0,0,0,2.51-6.11A7.84,7.84,0,0,0,70.6,52ZM65.07,63.72c-1.1-.06-1.87-.14-1.87-1.38V53.18c0-1.16.28-1.41,1.22-1.57.24,0,.74-.07.74-.07,2.6,0,4.14,2.26,4.14,6.1S67.75,63.87,65.07,63.72Z" transform="translate(-4.67 -4.93)" style="fill:#fff"/><path d="M85.56,62.42a2.17,2.17,0,1,0,2.16,2.17A2.16,2.16,0,0,0,85.56,62.42Zm0,3.9a1.74,1.74,0,1,1,1.7-1.74A1.67,1.67,0,0,1,85.56,66.32Zm.35-1.57a.66.66,0,0,0,.64-.74c0-.52-.27-.75-.86-.75h-.95v2.52h.43v-1h.24l.72,1h.5Zm-.73-.38v-.71h.39c.28,0,.57.07.57.36s-.32.35-.67.35Z" transform="translate(-4.67 -4.93)" style="fill:#fff"/></svg>